# xmcd CD database file
# Copyright (C) 1996 Ti Kan
#
# Track frame offsets:
#	150
#	13483
#	24265
#	40568
#	57350
#	75153
#	94455
#	109045
#	122453
#	141028
#	157610
#	172268
#
# Disc length: 2510 seconds
#
# Revision: 1
# Processed by: cddbd v1.4b41PL1 Copyright (c) Steve Scherf et al.
# Submitted via: EasyCD 2.21 - (C) 1996 Greg Leichner
#
DISCID=8a09cc0c
DTITLE=Ronnie Milsap - The Best of Ronnie Milsap
DYEAR=1900
DGENRE=
TTITLE0=A Legend in My Time
TTITLE1=Daydreams About Night Things
TTITLE2=It Was Almost Like a Song
TTITLE3=Smoky Mountain Rain
TTITLE4=What a Difference You've Made In My Life
TTITLE5=Lost In the Fifties Tonight
TTITLE6=There's No Getting Over Me
TTITLE7=(I'm A) Stand By My Woman Man
TTITLE8=Stranger In My House
TTITLE9=Any Day Now
TTITLE10=Woman In Love
TTITLE11=Button Off My Shirt
EXTD=
EXTT0=
EXTT1=
EXTT2=
EXTT3=
EXTT4=
EXTT5=
EXTT6=
EXTT7=
EXTT8=
EXTT9=
EXTT10=
EXTT11=
PLAYORDER=
